<?xml version="1.0" encoding="UTF-8" standalone="no"?>
<svg
   xmlns:dc="http://purl.org/dc/elements/1.1/"
   xmlns:cc="http://creativecommons.org/ns#"
   xmlns:rdf="http://www.w3.org/1999/02/22-rdf-syntax-ns#"
   xmlns:svg="http://www.w3.org/2000/svg"
   xmlns="http://www.w3.org/2000/svg"
   xmlns:sodipodi="http://sodipodi.sourceforge.net/DTD/sodipodi-0.dtd"
   xmlns:inkscape="http://www.inkscape.org/namespaces/inkscape"
   width="24"
   height="24"
   viewBox="0 0 24 24"
   id="svg4166"
   version="1.1"
   inkscape:version="0.91 r13725"
   sodipodi:docname="questionmark.svg">
  <metadata
     id="metadata4174">
    <rdf:RDF>
      <cc:Work
         rdf:about="">
        <dc:format>image/svg+xml</dc:format>
        <dc:type
           rdf:resource="http://purl.org/dc/dcmitype/StillImage" />
      </cc:Work>
    </rdf:RDF>
  </metadata>
  <defs
     id="defs4172" />
  <sodipodi:namedview
     pagecolor="#ffffff"
     bordercolor="#666666"
     borderopacity="1"
     objecttolerance="10"
     gridtolerance="10"
     guidetolerance="10"
     inkscape:pageopacity="0"
     inkscape:pageshadow="2"
     inkscape:window-width="1680"
     inkscape:window-height="1028"
     id="namedview4170"
     showgrid="false"
     inkscape:zoom="34.125"
     inkscape:cx="7.6776557"
     inkscape:cy="10.827839"
     inkscape:window-x="1672"
     inkscape:window-y="-8"
     inkscape:window-maximized="1"
     inkscape:current-layer="svg4166"
     inkscape:snap-bbox="false" />
  <path
     d="M11 18h2v-2h-2v2zm1-16C6.48 2 2 6.48 2 12s4.48 10 10 10 10-4.48 10-10S17.52 2 12 2zm0 18c-4.41 0-8-3.59-8-8s3.59-8 8-8 8 3.59 8 8-3.59 8-8 8zm0-14c-2.21 0-4 1.79-4 4h2c0-1.1.9-2 2-2s2 .9 2 2c0 2-3 1.75-3 5h2c0-2.25 3-2.5 3-5 0-2.21-1.79-4-4-4z"
     id="path4168" />
  <path
     style="fill:#009cde;fill-opacity:1;stroke:#009cde;stroke-opacity:1;stroke-width:0.1;stroke-miterlimit:4;stroke-dasharray:none"
     d="M 11.340659,21.968721 C 9.2713864,21.803612 7.4596536,21.107861 5.8468448,19.858958 5.4552993,19.555759 4.7053117,18.835032 4.3865921,18.455678 3.0698599,16.888443 2.2959238,15.074334 2.0612771,13.005128 2.0070418,12.526861 2.015424,11.39438 2.0770021,10.880586 2.272641,9.2482207 2.7948595,7.8225843 3.6925035,6.4703297 5.2713134,4.0919337 7.8019191,2.5028332 10.641314,2.1068061 c 2.43388,-0.3394676 5.013812,0.2748757 7.027261,1.6733584 0.712778,0.4950744 1.594447,1.3138317 2.107981,1.9575644 1.195581,1.4987025 1.915658,3.2238216 2.146666,5.1428571 0.0605,0.502599 0.06894,1.668371 0.01538,2.124542 -0.246323,2.097901 -1.007478,3.882146 -2.325193,5.45055 -0.31872,0.379354 -1.068707,1.100081 -1.460253,1.40328 -1.469886,1.138229 -3.109336,1.81841 -4.954237,2.055434 -0.347773,0.04468 -1.541709,0.07959 -1.858259,0.05433 z m 1.67033,-2.021552 c 1.782559,-0.218105 3.468417,-1.066624 4.749306,-2.390401 1.18863,-1.228429 1.922593,-2.737301 2.185553,-4.493032 0.06298,-0.420516 0.05362,-1.784816 -0.01528,-2.227106 C 19.744273,9.6407771 19.322878,8.5511226 18.666988,7.5692308 18.334952,7.0721609 18.088006,6.7700108 17.670909,6.3504777 15.778166,4.4466821 13.096791,3.6277885 10.436691,4.1411429 8.9160516,4.4346006 7.4497536,5.2232712 6.3290913,6.3504777 5.125612,7.5609846 4.3831114,9.0155719 4.0821187,10.752382 c -0.057048,0.329181 -0.065517,0.483779 -0.066426,1.212453 -0.00106,0.852519 0.012722,1.020051 0.1348163,1.638527 0.1710681,0.866554 0.5583051,1.841592 1.0367848,2.610557 1.0374561,1.667299 2.7131543,2.942005 4.5701359,3.47651 0.582345,0.167619 1.146642,0.264027 1.846966,0.315546 0.254909,0.01875 1.041471,-0.01413 1.406593,-0.05881 z"
     id="path4176"
     inkscape:connector-curvature="0" />
  <path
     style="fill:#009cde;fill-opacity:1;stroke:#009cde;stroke-opacity:1;stroke-width:0.1;stroke-miterlimit:4;stroke-dasharray:none"
     d="m 11.021524,14.741392 c 0.06245,-0.942047 0.362593,-1.633202 0.975329,-2.245937 0.124387,-0.124387 0.462794,-0.411697 0.752015,-0.638467 1.00606,-0.78882 1.257857,-1.164314 1.254092,-1.8701748 C 13.999698,9.3751739 13.755372,8.8547622 13.284646,8.4568106 12.91953,8.1481412 12.498149,7.9974724 12,7.9974724 c -0.474937,0 -0.853754,0.126262 -1.219296,0.4063986 -0.445008,0.3410355 -0.710573,0.8224033 -0.7884139,1.429096 l -0.017859,0.1391942 -0.984094,0 -0.9840939,0 0.020335,-0.2710623 C 8.1432192,8.1463161 9.1928501,6.7723103 10.669047,6.2420096 11.106701,6.0847891 11.443297,6.0315691 12,6.0315691 c 0.556703,0 0.893299,0.05322 1.330953,0.2104405 1.62861,0.585053 2.727572,2.1956048 2.645251,3.8766714 -0.02628,0.536764 -0.151947,0.921823 -0.44469,1.362638 -0.213949,0.322167 -0.43919,0.560318 -1.039454,1.099033 -0.564342,0.506476 -0.899807,0.844558 -1.061185,1.069465 -0.245844,0.342621 -0.433839,0.85949 -0.434333,1.194139 l -2.05e-4,0.139194 -0.99542,0 -0.99542,0 0.01603,-0.241758 z"
     id="path4178"
     inkscape:connector-curvature="0" />
  <path
     style="fill:#009cde;fill-opacity:1;stroke-width:0.1;stroke-miterlimit:4;stroke-dasharray:none;stroke:#009cde;stroke-opacity:1"
     d="m 11.003663,16.990476 0,-0.981685 0.996337,0 0.996337,0 0,0.981685 0,0.981685 -0.996337,0 -0.996337,0 0,-0.981685 z"
     id="path4180"
     inkscape:connector-curvature="0" />
</svg>
