<?xml version="1.0" encoding="utf-8"?>
<!-- Generator: Adobe Illustrator 16.0.0, SVG Export Plug-In . SVG Version: 6.00 Build 0)  -->
<!DOCTYPE svg PUBLIC "-//W3C//DTD SVG 1.1//EN" "http://www.w3.org/Graphics/SVG/1.1/DTD/svg11.dtd">
<svg version="1.1" id="Layer_1" xmlns="http://www.w3.org/2000/svg" xmlns:xlink="http://www.w3.org/1999/xlink" x="0px" y="0px"
	 width="619px" height="189px" viewBox="0 0 619 189" enable-background="new 0 0 619 189" xml:space="preserve">
<g>
	<polygon fill="#FFFFFF" points="238.318,50.724 238.318,168.589 262.312,168.589 262.312,50.724 238.318,50.724 	"/>
	<path fill="#FFFFFF" d="M201.183,46.947c-34.728,0-62.553,27.197-62.553,61.925c0,33.682,27.825,61.506,61.298,61.506
		c34.1,0,61.924-27.196,61.924-61.506C261.852,75.19,235.283,46.947,201.183,46.947L201.183,46.947z M199.928,70.814
		c22.891,0,38.15,18.56,38.15,38.058c0,21.448-17.937,37.713-38.15,37.713c-20.925,0-37.523-17.604-37.523-37.713
		C162.405,87.461,179.194,70.814,199.928,70.814L199.928,70.814z"/>
	<polygon fill="#FFFFFF" points="301.919,19 301.919,168.589 277.925,168.589 277.925,19 301.919,19 	"/>
	<path fill="#FFFFFF" d="M339.054,46.947c34.729,0,62.552,27.197,62.552,61.925c0,33.682-27.823,61.506-61.297,61.506
		c-34.101,0-61.925-27.196-61.925-61.506C278.384,75.19,304.953,46.947,339.054,46.947L339.054,46.947z M340.309,70.814
		c-22.892,0-38.151,18.56-38.151,38.058c0,21.448,17.938,37.713,38.151,37.713c20.925,0,37.523-17.604,37.523-37.713
		C377.832,87.461,361.042,70.814,340.309,70.814L340.309,70.814z"/>
	<path fill="#FFFFFF" d="M503.13,129.02c-5.778,9.223-17.603,17.373-30.654,17.373c-24.068,0-38.993-17.412-38.993-38.244
		c0-20.497,17.029-37.334,37.525-37.334c14.52,0,25.999,7.271,33.079,18.252l26.979,1.648c-1.913-5.358-4.446-9.496-6.424-13.077
		c-10.381-18.798-31.724-30.931-53.214-30.931c-33.762,0-61.862,27.361-61.862,61.022c0,17.196,6.291,33.344,18.873,45.296
		c11.324,10.904,26.475,17.405,43.199,17.405c25.223,0,49.095-16.383,57.683-40.478c0.015-0.041,0.026-0.083,0.041-0.124
		c0.099-0.306-22.613-8.04-22.52-8.348c0,0-1.071,2.564-1.492,3.521C505.051,125.681,503.13,129.02,503.13,129.02L503.13,129.02z"/>
	<polygon fill="#FFFFFF" points="449.164,106.261 459.831,127.196 531.479,90.689 527.281,82.295 518.807,70.776 449.164,106.261 	
		"/>
	<line fill="none" stroke="#96C93D" stroke-width="24.0557" x1="551.855" y1="168.581" x2="551.855" y2="50.739"/>
	<path fill="#FFFFFF" d="M55.986,74.824h65.647c0,0,0-4.201,6.123-12.62c7.003-9.629,14.159-11.594,14.159-11.594H53.463
		c-1.681,0-4.147,0.28-7.398,0.841C28.688,58.401,20,69.556,20,84.914v3.363c0,2.13,0.281,4.316,0.841,6.558
		c6.39,18.049,17.825,27.073,34.304,27.073h45.813c7.735,1.009,11.603,4.315,11.603,9.921v1.682c0,5.941-4.036,9.417-12.107,10.426
		H20.993l0.016,24.382h80.285c2.803,0,5.83-0.56,9.081-1.681c15.919-6.839,23.878-18.161,23.878-33.968v-0.336
		c0-3.027-0.28-5.493-0.841-7.399c-5.605-18.608-17.88-27.914-36.826-27.914H51.614c-5.493,0-8.969-3.755-10.426-11.266
		c0.673-1.906,1.009-3.083,1.009-3.532C44.103,77.291,48.699,74.824,55.986,74.824L55.986,74.824z"/>
	<polygon fill="#FFFFFF" points="539.867,50.724 539.867,168.589 563.861,168.589 563.861,50.724 539.867,50.724 	"/>
	<path fill="#FFFFFF" d="M593.381,71.044c-10.998,2.373-21.829,10.736-26.71,22.839c-2.58,6.398-2.886,13.515-2.886,13.515
		l-23.696,2.001c0,0,0.962-15.293,3.675-22.849c8.523-23.739,32.01-40.531,57.589-40.47c0.043,0,0.087,0.002,0.132,0.004
		c0.319,0.01-0.075,23.998,0.245,24.014c0,0-2.774,0.142-3.817,0.215C597.172,70.365,593.381,71.044,593.381,71.044L593.381,71.044z
		"/>
	<path fill="#FFFFFF" d="M578.001,155.872c-0.256,0-0.461,0.07-0.615,0.211c-0.153,0.141-0.229,0.327-0.229,0.557
		c0,0.231,0.076,0.416,0.229,0.558c0.154,0.141,0.359,0.211,0.615,0.211h3.629v10.866c0,0.258,0.079,0.461,0.24,0.615
		c0.16,0.153,0.367,0.23,0.624,0.23c0.256,0,0.463-0.077,0.624-0.23c0.16-0.154,0.239-0.357,0.239-0.615v-10.866h3.648
		c0.243,0,0.444-0.07,0.604-0.211c0.159-0.142,0.239-0.326,0.239-0.558c0-0.229-0.08-0.416-0.239-0.557
		c-0.16-0.141-0.361-0.211-0.604-0.211H578.001L578.001,155.872z M595.799,164.455l-4.416-7.776
		c-0.153-0.295-0.304-0.503-0.451-0.624c-0.146-0.122-0.336-0.183-0.566-0.183c-0.294,0-0.525,0.084-0.691,0.25
		s-0.249,0.396-0.249,0.69v11.462c0,0.258,0.079,0.461,0.24,0.615c0.16,0.153,0.367,0.23,0.624,0.23c0.256,0,0.463-0.077,0.624-0.23
		c0.16-0.154,0.24-0.357,0.24-0.615v-8.889l3.819,6.894c0.205,0.37,0.455,0.556,0.749,0.556c0.18,0,0.327-0.044,0.442-0.134
		c0.115-0.089,0.224-0.23,0.326-0.422l3.917-6.971v8.986c0,0.256,0.08,0.46,0.239,0.614c0.16,0.153,0.368,0.229,0.624,0.229
		c0.257,0,0.464-0.076,0.624-0.229c0.16-0.154,0.24-0.358,0.24-0.614v-11.482c0-0.319-0.086-0.557-0.259-0.71
		s-0.387-0.23-0.644-0.23c-0.191,0-0.367,0.061-0.527,0.183c-0.16,0.121-0.324,0.329-0.49,0.624L595.799,164.455L595.799,164.455z"
		/>
</g>
</svg>
