<svg xmlns="http://www.w3.org/2000/svg" width="50" height="50" viewBox="0 0 50 50">
    <path fill="#009cde" style="text-indent:0;text-align:start;line-height:normal;text-transform:none;block-progression:tb;-inkscape-font-specification:Bitstream Vera Sans" d="M 19 1 C 17.906937 1 17 1.9069372 17 3 L 17 6 C 17 6.9773267 17.72139 7.8042536 18.65625 7.96875 C 18.557377 8.1378573 18.444744 8.2864375 18.34375 8.46875 C 17.642347 9.7349075 16.948171 11.382081 16.3125 13.15625 C 15.041159 16.704588 14 20.564457 14 22.8125 L 14 45 C 14 47.749516 16.250484 50 19 50 L 31 50 C 33.749516 50 36 47.749516 36 45 L 36 22.8125 C 36 20.559015 34.94058 16.704211 33.65625 13.15625 C 33.014085 11.382269 32.328928 9.7027114 31.625 8.4375 C 31.531023 8.268589 31.43885 8.1233131 31.34375 7.96875 C 32.27861 7.8042536 33 6.9773267 33 6 L 33 3 C 33 1.9069372 32.093063 1 31 1 L 19 1 z M 19 3 L 31 3 L 31 6 L 29.15625 6 L 28.875 6 L 21.15625 6 L 21 6 L 19 6 L 19 3 z M 21.09375 8 L 21.125 8 L 28.84375 8 C 28.871099 8.0164097 28.953021 8.065639 29.0625 8.1875 C 29.281458 8.4312217 29.566777 8.8835119 29.875 9.4375 C 30.491447 10.545476 31.163415 12.105731 31.78125 13.8125 C 33.01692 17.226039 34 21.267985 34 22.8125 L 34 45 C 34 46.668484 32.668484 48 31 48 L 19 48 C 17.331516 48 16 46.668484 16 45 L 16 22.8125 C 16 21.262543 16.964591 17.225662 18.1875 13.8125 C 18.798954 12.105919 19.480497 10.54453 20.09375 9.4375 C 20.400376 8.883985 20.687793 8.4304112 20.90625 8.1875 C 21.006483 8.0760466 21.060987 8.0200158 21.09375 8 z" color="#000" overflow="visible" enable-background="accumulate" font-family="Bitstream Vera Sans"></path>
</svg>