<?xml version="1.0" encoding="utf-8"?>
<!-- Generator: Adobe Illustrator 16.0.0, SVG Export Plug-In . SVG Version: 6.00 Build 0)  -->
<!DOCTYPE svg PUBLIC "-//W3C//DTD SVG 1.1//EN" "http://www.w3.org/Graphics/SVG/1.1/DTD/svg11.dtd">
<svg version="1.1" id="Layer_1" xmlns="http://www.w3.org/2000/svg" xmlns:xlink="http://www.w3.org/1999/xlink" x="0px" y="0px"
	 width="50px" height="50px" viewBox="0 0 50 50" enable-background="new 0 0 50 50" xml:space="preserve">
<path d="M19,1c-1.093,0-2,0.907-2,2v3c0,0.978,0.721,1.804,1.656,1.969c-0.099,0.169-0.211,0.318-0.312,0.5
	c-0.701,1.266-1.396,2.913-2.031,4.688C15.041,16.705,14,20.564,14,22.812V45c0,2.75,2.25,5,5,5h12c2.75,0,5-2.25,5-5V22.812
	c0-2.253-1.06-6.108-2.344-9.656c-0.643-1.774-1.327-3.454-2.031-4.719c-0.094-0.169-0.186-0.314-0.281-0.469
	C32.279,7.804,33,6.978,33,6V3c0-1.093-0.906-2-2-2H19z M19,3h12v3h-1.844h-0.281h-7.719H21h-2V3z M21.094,8h0.031h7.719
	c0.027,0.017,0.109,0.065,0.219,0.188c0.219,0.244,0.504,0.696,0.812,1.25c0.616,1.108,1.289,2.668,1.906,4.375
	c1.236,3.414,2.219,7.456,2.219,9V45c0,1.668-1.332,3-3,3H19c-1.668,0-3-1.332-3-3V22.812c0-1.55,0.965-5.587,2.188-9
	c0.611-1.707,1.293-3.268,1.906-4.375c0.307-0.554,0.594-1.007,0.812-1.25C21.006,8.076,21.061,8.02,21.094,8z"/>
<rect x="16" y="26.828" width="18" height="2"/>
</svg>
