<?xml version="1.0" encoding="utf-8"?>
<!-- Generator: Adobe Illustrator 16.0.0, SVG Export Plug-In . SVG Version: 6.00 Build 0)  -->
<!DOCTYPE svg PUBLIC "-//W3C//DTD SVG 1.1//EN" "http://www.w3.org/Graphics/SVG/1.1/DTD/svg11.dtd">
<svg version="1.1" id="Layer_1" xmlns="http://www.w3.org/2000/svg" xmlns:xlink="http://www.w3.org/1999/xlink" x="0px" y="0px"
	 width="13px" height="18px" viewBox="0 0 13 18" enable-background="new 0 0 13 18" xml:space="preserve">
<path fill="#C8DBF0" d="M12.99,15.379c0.005-0.026,0.015-0.053,0.018-0.079H12.99V2.895C12.991,2.874,13,2.854,13,2.834
	C13,1.269,10.09,0,6.5,0C3.003,0,0.16,1.205,0.014,2.713H0V15.3h-0.008c0.001,0.012,0.006,0.023,0.008,0.035v0.074h0.017
	C0.303,16.86,3.088,18,6.5,18s6.198-1.14,6.484-2.591h0.007V15.379z M6.5,1C9.912,1,12,2.188,12,2.834
	c0,0.647-2.088,1.834-5.5,1.834C3.088,4.668,1,3.481,1,2.834C1,2.188,3.088,1,6.5,1z M0.943,6.167v0.988
	C0.941,7.153,0.939,7.152,0.938,7.151V5.024c1.22,0.814,3.273,1.351,5.611,1.351c2.268,0,4.271-0.503,5.503-1.277v1.144
	C11.338,6.87,9.365,7.603,6.554,7.603C3.633,7.603,1.583,6.81,0.943,6.167z M7.45,10.191c1.892-0.104,3.535-0.534,4.602-1.15v4.867
	c-0.635,0.559-2.27,1.195-4.602,1.33V10.191z"/>
</svg>
