<?xml version="1.0" encoding="utf-8"?>
<!-- Generator: Adobe Illustrator 16.0.0, SVG Export Plug-In . SVG Version: 6.00 Build 0)  -->
<!DOCTYPE svg PUBLIC "-//W3C//DTD SVG 1.1//EN" "http://www.w3.org/Graphics/SVG/1.1/DTD/svg11.dtd">
<svg version="1.1" id="Layer_1" xmlns="http://www.w3.org/2000/svg" xmlns:xlink="http://www.w3.org/1999/xlink" x="0px" y="0px"
	 width="13px" height="18px" viewBox="0 0 13 18" enable-background="new 0 0 13 18" xml:space="preserve">
<path fill="#C8DBF0" d="M12.99,15.379c0.005-0.026,0.015-0.053,0.018-0.079H12.99V2.918C12.992,2.89,13,2.862,13,2.834
	C13,1.269,10.09,0,6.5,0C3.003,0,0.16,1.205,0.014,2.713H0V15.3h-0.008c0.001,0.012,0.006,0.023,0.008,0.035v0.074h0.017
	C0.303,16.86,3.088,18,6.5,18s6.198-1.14,6.484-2.591h0.007V15.379z M12.052,9.921v2.684c-0.65,0.545-2.091,1.133-4.117,1.314
	v-2.896C9.619,10.881,11.076,10.482,12.052,9.921z M0.938,4.295c1.138,0.822,3.2,1.373,5.562,1.373c2.355,0,4.411-0.548,5.552-1.366
	v1.702c-0.71,0.629-2.687,1.364-5.503,1.364c-2.921,0-4.971-0.793-5.611-1.436V4.295z M6.5,1C9.912,1,12,2.188,12,2.834
	c0,0.647-2.088,1.834-5.5,1.834C3.088,4.668,1,3.481,1,2.834C1,2.188,3.088,1,6.5,1z M6.5,17c-3.196,0-5.304-1.029-5.562-1.693
	V7.124c1.22,0.75,3.273,1.245,5.611,1.245c2.268,0,4.271-0.464,5.503-1.176v1.544c-0.684,0.596-2.504,1.273-5.085,1.341v0.299v0.703
	v2.894v0.69v0.386c2.078-0.042,3.906-0.499,5.085-1.195V15.3h-0.005C11.801,15.964,9.707,17,6.5,17z"/>
</svg>
