<?xml version="1.0" encoding="utf-8"?>
<!-- Generator: Adobe Illustrator 16.0.0, SVG Export Plug-In . SVG Version: 6.00 Build 0)  -->
<!DOCTYPE svg PUBLIC "-//W3C//DTD SVG 1.1//EN" "http://www.w3.org/Graphics/SVG/1.1/DTD/svg11.dtd">
<svg version="1.1" id="Layer_1" xmlns="http://www.w3.org/2000/svg" xmlns:xlink="http://www.w3.org/1999/xlink" x="0px" y="0px"
	 width="9px" height="20px" viewBox="21 16 8 18" enable-background="new 21 16 8 18" xml:space="preserve">
<path fill="#C8DBF1" d="M22.818,16c-0.397,0-0.728,0.333-0.728,0.736v1.103c0,0.358,0.263,0.662,0.602,0.723
	c-0.036,0.062-0.077,0.116-0.113,0.184c-0.255,0.465-0.508,1.071-0.739,1.723C21.379,21.77,21,23.187,21,24.014v8.15
	C21,33.175,21.818,34,22.818,34h4.363c1,0,1.818-0.825,1.818-1.836v-8.15c0-0.828-0.387-2.244-0.854-3.548
	c-0.234-0.651-0.482-1.268-0.738-1.733c-0.033-0.062-0.068-0.115-0.104-0.171c0.34-0.061,0.604-0.364,0.604-0.722v-1.103
	c0-0.401-0.33-0.736-0.729-0.736H22.818z M22.818,16.736h4.363v1.103H26.51h-0.102h-2.807h-0.056h-0.728L22.818,16.736
	L22.818,16.736z M23.581,18.573h0.011h2.805c0.012,0.006,0.041,0.023,0.08,0.068c0.08,0.089,0.186,0.256,0.296,0.46
	c0.226,0.407,0.47,0.979,0.692,1.607c0.449,1.254,0.807,2.739,0.807,3.306v8.15c0,0.613-0.482,1.103-1.09,1.103h-4.363
	c-0.606,0-1.091-0.488-1.091-1.103v-8.15c0-0.57,0.351-2.053,0.795-3.307c0.222-0.627,0.47-1.2,0.693-1.607
	c0.112-0.204,0.216-0.37,0.295-0.46C23.548,18.601,23.568,18.58,23.581,18.573z"/>
</svg>
