<?xml version="1.0" encoding="utf-8"?>
<!-- Generator: Adobe Illustrator 16.0.0, SVG Export Plug-In . SVG Version: 6.00 Build 0)  -->
<!DOCTYPE svg PUBLIC "-//W3C//DTD SVG 1.1//EN" "http://www.w3.org/Graphics/SVG/1.1/DTD/svg11.dtd">
<svg version="1.1" id="Layer_1" xmlns="http://www.w3.org/2000/svg" xmlns:xlink="http://www.w3.org/1999/xlink" x="0px" y="0px"
	 width="9px" height="20px" viewBox="21 16 8 18" enable-background="new 21 16 8 18" xml:space="preserve">
<path fill="#C8DBF1" d="M22.818,16c-0.401,0-0.728,0.33-0.728,0.735v0.734c0,0.405,0.326,0.735,0.728,0.735h4.363
	c0.401,0,0.727-0.33,0.727-0.735v-0.734c0-0.405-0.325-0.735-0.727-0.735H22.818z M22.511,18.904C21.697,20.435,21,23.16,21,24.013
	v8.15C21,33.176,21.816,34,22.818,34h4.363C28.185,34,29,33.176,29,32.163v-8.15c0-0.852-0.693-3.577-1.512-5.108
	c-0.097,0.021-0.203,0.035-0.307,0.035h-4.363C22.712,18.939,22.611,18.926,22.511,18.904z"/>
</svg>
