<?xml version="1.0" encoding="utf-8"?>
<!-- Generator: Adobe Illustrator 17.0.0, SVG Export Plug-In . SVG Version: 6.00 Build 0)  -->
<!DOCTYPE svg PUBLIC "-//W3C//DTD SVG 1.1//EN" "http://www.w3.org/Graphics/SVG/1.1/DTD/svg11.dtd">
<svg version="1.1" id="Layer_1" xmlns="http://www.w3.org/2000/svg" xmlns:xlink="http://www.w3.org/1999/xlink" x="0px" y="0px"
	 width="50" height="50" viewBox="40 40 130 130" xml:space="preserve">
<path id="Hub" fill="#009cde" d="M105,167.074c34.228,0,62.074-27.846,62.074-62.074c0-15.771-5.921-30.177-15.645-41.139
	c-0.098-0.096-0.186-0.198-0.265-0.306C139.792,50.901,123.312,42.926,105,42.926c-18.122,0-34.452,7.808-45.811,20.234
	c-0.178,0.372-2.13,2.49-2.77,3.266c-8.24,10.356-13.241,23.388-13.469,37.567c0.001,4.487,0.435,9.165,1.367,14.058
	C50.33,146.032,75.249,167.074,105,167.074z M97.036,160.938c-0.586,0.462-1.423,0.334-2.269,0.076
	c-13.271-3.114-22.937-8.699-32.479-18.735c-0.673-0.698-1.031-1.354-1.031-1.881c0-0.078,0.033-0.195,0.033-0.254
	c0.146-0.907,1.194-1.414,2.16-1.864l27.684-13.474c1.106-0.503,2.138-0.503,2.963-0.019c0.816,0.47,1.258,1.36,1.356,2.525
	c0,0,2.257,30.76,2.257,30.805C97.806,159.568,97.635,160.49,97.036,160.938z M148.147,141.958
	c-9.462,9.928-19.175,15.538-32.414,18.715c-1.183,0.295-1.954,0.187-2.42-0.182c-0.695-0.618-0.575-1.766-0.554-2.772l2.246-30.721
	c0.077-1.218,0.572-2.091,1.389-2.607c0.847-0.442,1.867-0.442,2.919,0.054l27.759,13.468c1.292,0.607,1.899,1.256,2.07,1.973
	C149.328,140.631,148.711,141.304,148.147,141.958z M154.659,85.059c1.248-0.844,2.116-1.128,2.811-0.882
	c0.684,0.307,1.064,1.15,1.302,1.967c3.885,13.012,3.885,24.262,0,37.433c-0.326,1.163-0.835,1.809-1.422,1.988
	c-0.868,0.301-1.825-0.347-2.647-0.881l-25.491-17.34c-0.988-0.651-1.487-1.554-1.487-2.481c0-0.933,0.499-1.837,1.487-2.499
	L154.659,85.059z M113.389,49.077c0.575-0.51,1.443-0.334,2.189-0.141c13.318,3.168,23.028,8.762,32.482,18.761
	c0.738,0.727,1.063,1.391,1.031,1.918c0.033,0.12,0,0.195,0,0.254c-0.195,0.947-1.205,1.419-2.094,1.851l-27.749,13.39
	c-1.063,0.513-2.083,0.602-2.94,0.117c-0.778-0.47-1.303-1.394-1.375-2.561l-2.195-30.809
	C112.618,50.477,112.792,49.555,113.389,49.077z M124.781,105.054c0,10.957-8.907,19.852-19.868,19.852
	c-10.956,0-19.859-8.895-19.859-19.852c0-10.957,8.903-19.902,19.859-19.902C115.874,85.191,124.781,94.097,124.781,105.054z
	 M61.81,67.912c9.539-9.95,19.219-15.563,32.501-18.756c0.836-0.154,1.704-0.295,2.29,0.209c0.531,0.456,0.741,1.327,0.619,2.81
	l-2.235,30.741c-0.074,1.18-0.576,2.067-1.357,2.578c-0.835,0.434-1.861,0.434-2.962-0.093L62.949,71.939
	c-0.923-0.434-1.975-0.906-2.095-1.834C60.681,69.515,61.04,68.782,61.81,67.912z M52.632,84.359c0.79-0.35,1.755,0.32,2.658,0.906
	l25.435,17.314c0.943,0.665,1.519,1.53,1.519,2.515c0,0.907-0.576,1.81-1.519,2.444L55.29,124.862
	c-1.215,0.838-2.146,1.101-2.78,0.838c-0.771-0.215-1.063-1.061-1.324-1.91c-3.853-13.045-3.853-24.252,0-37.471
	C51.522,85.227,51.989,84.554,52.632,84.359z"/>
</svg>
